# xmcd
#
# Track frame offsets: 
#        150
#        18303
#        49205
#        65732
#        82743
#        99779
#        117426
#        132413
#        148393
#        164933
#        180739
#        197874
#        212954
#        245016
#        262884
#        279858
#        301326
#        317755
#        337871
#
# Disc length: 4742 seconds
#
# Revision: 0
# Processed by: cddbd v1.5.2PL0 Copyright (c) Steve Scherf et al.
# Submitted via: ExactAudioCopyFreeDBPlugin 1.0
#
DISCID=1d128413
DTITLE=Various Artist - Club Rotation Vol.13
DYEAR=2000
DGENRE=Techno
TTITLE0=Scooter - I'm Your Pusher
TTITLE1=Paffendorf - Everybody Scream
TTITLE2=Aquagen - Party Alarm, Und Ab Geht's
TTITLE3=ATB - The Summer
TTITLE4=Alex Apollo feat. Anne Joy - Fly With Me
TTITLE5=Blank and Jones - The Nightfly
TTITLE6=2 Unlimited - No Limit
TTITLE7=Monotone! feat. L.A. Work - Monotone Episode 2
TTITLE8=DJ Peter Project - The Party Plane
TTITLE9=DJ Piero - I Can't Stop Loving You
TTITLE10=DJ Darkzone - Watching You
TTITLE11=Mason's Project - I Promised Myself
TTITLE12=Floorfilla - Anthem #3
TTITLE13=Storm - Time To Burn
TTITLE14=Teledummies - Oh Oh!
TTITLE15=D-Devils - 6Th Gate
TTITLE16=R.I.T.E. - Soma Vision
TTITLE17=Gate 1 - The Flight
TTITLE18=Supersonic - Stop! Don't Stop!
EXTD=
EXTT0=
EXTT1=
EXTT2=
EXTT3=
EXTT4=
EXTT5=
EXTT6=
EXTT7=
EXTT8=
EXTT9=
EXTT10=
EXTT11=
EXTT12=
EXTT13=
EXTT14=
EXTT15=
EXTT16=
EXTT17=
EXTT18=
PLAYORDER=
